# xmcd
#
# Track frame offsets:
#	150
#	11760
#	25360
#	36315
#	48797
#	62857
#	75262
#	85280
#	97870
#	110447
#	125940
#	139757
#
# Disc length: 2016 seconds
#
# Revision: 3
# Processed by: cddbd v1.5.2PL0 Copyright (c) Steve Scherf et al.
# Submitted via: audiograbber 1.83.01
#
DISCID=9907de0c
DTITLE=Gaye, Marvin and Tammi Terrell - United
DYEAR=1967
DGENRE=Soul
TTITLE0=Ain't no mountain high enough
TTITLE1=You've got what it takes
TTITLE2=If I could build my whole world around you
TTITLE3=Somethin' stupid
TTITLE4=Your precious love
TTITLE5=Hold me, oh my darling
TTITLE6=Two can have a party
TTITLE7=Little ole boy, little ole girl
TTITLE8=If this world were mine
TTITLE9=Sad wedding
TTITLE10=Give a little love
TTITLE11=Oh how I'd miss you
EXTD=
EXTT0=
EXTT1=
EXTT2=
EXTT3=
EXTT4=Yesterday: 01.10.1999
EXTT5=
EXTT6=
EXTT7=
EXTT8=
EXTT9=
EXTT10=
EXTT11=
PLAYORDER=
